<svg viewBox="0 0 20 20" xmlns="http://www.w3.org/2000/svg">
<path d="M10.0007 1.99988C7.82806 1.99988 7.55539 2.00938 6.70205 2.04821C5.85037 2.08721 5.26903 2.22205 4.76036 2.41988C4.23419 2.62422 3.78785 2.89755 3.34318 3.34239C2.89818 3.78706 2.62484 4.2334 2.41984 4.75941C2.2215 5.26825 2.0865 5.84975 2.04817 6.70109C2.01 7.55444 2 7.82727 2 9.99996C2 12.1727 2.00967 12.4445 2.04833 13.2978C2.0875 14.1495 2.22234 14.7308 2.42 15.2395C2.62451 15.7657 2.89784 16.212 3.34268 16.6567C3.78719 17.1017 4.23352 17.3757 4.75936 17.58C5.26837 17.7779 5.84987 17.9127 6.70138 17.9517C7.55472 17.9905 7.82723 18 9.99975 18C12.1726 18 12.4444 17.9905 13.2978 17.9517C14.1495 17.9127 14.7315 17.7779 15.2405 17.58C15.7665 17.3757 16.2121 17.1017 16.6567 16.6567C17.1017 16.212 17.375 15.7657 17.58 15.2397C17.7767 14.7308 17.9117 14.1493 17.9517 13.298C17.99 12.4447 18 12.1727 18 9.99996C18 7.82727 17.99 7.5546 17.9517 6.70126C17.9117 5.84958 17.7767 5.26825 17.58 4.75957C17.375 4.2334 17.1017 3.78706 16.6567 3.34239C16.2116 2.89739 15.7666 2.62405 15.24 2.41988C14.73 2.22205 14.1483 2.08721 13.2966 2.04821C12.4433 2.00938 12.1716 1.99988 9.99825 1.99988H10.0007ZM9.28308 3.44156C9.49608 3.44123 9.73375 3.44156 10.0007 3.44156C12.1368 3.44156 12.3899 3.44923 13.2335 3.48756C14.0135 3.52323 14.4368 3.65356 14.7188 3.76306C15.0921 3.90806 15.3583 4.0814 15.6381 4.3614C15.9181 4.64141 16.0915 4.90807 16.2368 5.28141C16.3463 5.56308 16.4768 5.98642 16.5123 6.76643C16.5507 7.60977 16.559 7.86311 16.559 9.99813C16.559 12.1331 16.5507 12.3865 16.5123 13.2298C16.4767 14.0098 16.3463 14.4332 16.2368 14.7148C16.0918 15.0882 15.9181 15.354 15.6381 15.6339C15.3581 15.9139 15.0923 16.0872 14.7188 16.2322C14.4371 16.3422 14.0135 16.4722 13.2335 16.5079C12.3901 16.5462 12.1368 16.5545 10.0007 16.5545C7.86456 16.5545 7.61139 16.5462 6.76805 16.5079C5.98804 16.4719 5.5647 16.3415 5.28253 16.232C4.9092 16.087 4.64253 15.9137 4.36252 15.6337C4.08252 15.3537 3.90919 15.0877 3.76385 14.7142C3.65435 14.4325 3.52385 14.0092 3.48835 13.2292C3.45002 12.3858 3.44235 12.1325 3.44235 9.99613C3.44235 7.85977 3.45002 7.60777 3.48835 6.76443C3.52402 5.98442 3.65435 5.56108 3.76385 5.27908C3.90885 4.90574 4.08252 4.63907 4.36252 4.35907C4.64253 4.07907 4.9092 3.90573 5.28253 3.7604C5.56454 3.6504 5.98804 3.52039 6.76805 3.48456C7.50606 3.45123 7.79206 3.44123 9.28308 3.43956V3.44156ZM14.2711 4.76991C13.7411 4.76991 13.3111 5.19941 13.3111 5.72958C13.3111 6.25959 13.7411 6.68959 14.2711 6.68959C14.8011 6.68959 15.2311 6.25959 15.2311 5.72958C15.2311 5.19958 14.8011 4.76957 14.2711 4.76957V4.76991ZM10.0007 5.89158C7.73189 5.89158 5.89237 7.7311 5.89237 9.99996C5.89237 12.2688 7.73189 14.1075 10.0007 14.1075C12.2696 14.1075 14.1085 12.2688 14.1085 9.99996C14.1085 7.7311 12.2694 5.89158 10.0006 5.89158H10.0007ZM10.0007 7.33327C11.4734 7.33327 12.6674 8.52711 12.6674 9.99996C12.6674 11.4726 11.4734 12.6667 10.0007 12.6667C8.5279 12.6667 7.33406 11.4726 7.33406 9.99996C7.33406 8.52711 8.5279 7.33327 10.0007 7.33327V7.33327Z" fill="currentColor"/>
</svg>
