<svg viewBox="0 0 20 20" xmlns="http://www.w3.org/2000/svg">
<path d="M5.80685 17.3521H2.64795V7.53006H5.80685V17.3521ZM4.33667 6.0367H4.31403C3.30306 6.0367 2.64844 5.28411 2.64844 4.34202C2.64844 3.3827 3.32029 2.64783 4.35389 2.64783C5.3875 2.64783 6.01997 3.37728 6.04261 4.34202C6.04212 5.28411 5.3875 6.0367 4.33667 6.0367ZM17.3518 17.3521H14.1929V11.9816C14.1929 10.695 13.7331 9.81589 12.5903 9.81589C11.7171 9.81589 11.2003 10.4065 10.9705 10.9819C10.8843 11.1887 10.8612 11.4702 10.8612 11.7577V17.3521H7.70229V7.53006H10.8612V8.89693C11.3209 8.24229 12.039 7.3002 13.71 7.3002C15.7836 7.3002 17.3522 8.66707 17.3522 11.6139L17.3518 17.3521Z" fill="currentColor"/>
</svg>
