<svg width="20" height="20" viewBox="0 0 20 20" xmlns="http://www.w3.org/2000/svg">
<path fill-rule="evenodd" clip-rule="evenodd" d="M18.2813 4.22503C17.5777 3.51895 16.6219 3.12207 15.625 3.12207C14.6282 3.12207 13.6724 3.51895 12.9688 4.22503L13.8563 5.11253C14.4893 4.4795 15.412 4.23227 16.2767 4.46398C17.1415 4.69568 17.8169 5.37112 18.0486 6.23585C18.2803 7.10059 18.0331 8.02325 17.4 8.65628L12.4 13.6563C11.7681 14.2893 10.8465 14.5371 9.98232 14.3064C9.11815 14.0757 8.44271 13.4014 8.21045 12.5376C7.97818 11.6739 8.22438 10.7518 8.85629 10.1188L9.73754 9.23128L8.85629 8.34378L7.96879 9.23128C7.26271 9.93491 6.86584 10.8907 6.86584 11.8875C6.86584 12.8843 7.26271 13.8401 7.96879 14.5438C8.67597 15.2419 9.63134 15.6308 10.625 15.625C11.6258 15.6291 12.5866 15.2331 13.2938 14.525L18.2938 9.52503C19.7526 8.05749 19.747 5.68566 18.2813 4.22503ZM2.61879 15.5125C2.14743 15.0434 1.88244 14.4057 1.88244 13.7407C1.88244 13.0756 2.14743 12.4379 2.61879 11.9688L7.61879 6.96878C8.08796 6.49742 8.72561 6.23243 9.39067 6.23243C10.0557 6.23243 10.6934 6.49742 11.1625 6.96878C11.6311 7.44179 11.8881 8.08437 11.875 8.75003C11.8789 9.4176 11.6156 10.059 11.1438 10.5313L9.81879 11.875L10.7063 12.7625L12.0313 11.4375C13.5 9.9688 13.5 7.58751 12.0313 6.11878C10.5626 4.65004 8.18127 4.65004 6.71254 6.11878L1.71254 11.1188C1.00454 11.8227 0.606445 12.7798 0.606445 13.7782C0.606445 14.7765 1.00454 15.7336 1.71254 16.4375C2.42431 17.1303 3.38185 17.5124 4.37504 17.5C5.37698 17.501 6.33862 17.1055 7.05004 16.4L6.16254 15.5125C5.69337 15.9839 5.05572 16.2489 4.39067 16.2489C3.72561 16.2489 3.08796 15.9839 2.61879 15.5125Z" fill="currentColor"/>
</svg>
