<svg viewBox="0 0 20 20" xmlns="http://www.w3.org/2000/svg">
<path d="M10.7647 3.85365C10.2868 3.59875 9.71324 3.59875 9.23529 3.85365L4.36029 6.45365C3.83077 6.73607 3.5 7.28734 3.5 7.88748V8.14219L8.95068 11.3369L10 10.754L11.0493 11.3369L16.5 8.14219V7.88748C16.5 7.28734 16.1692 6.73607 15.6397 6.45365L10.7647 3.85365Z" fill="currentColor"/>
<path d="M16.5 9.08397L11.8742 11.7952L16.5 14.3651V9.08397Z" fill="currentColor"/>
<path d="M16.4522 15.268L10 11.6835L3.54785 15.268C3.72359 15.9756 4.36306 16.5 5.125 16.5H14.875C15.6369 16.5 16.2764 15.9756 16.4522 15.268Z" fill="currentColor"/>
<path d="M3.5 14.3651L8.12577 11.7952L3.5 9.08397V14.3651Z" fill="currentColor"/>
</svg>
