<svg viewBox="0 0 20 20" xmlns="http://www.w3.org/2000/svg">
<path d="M9.35864 6.2503C9.35864 4.4628 10.8618 2.97592 12.6493 3.0003C13.2753 3.00752 13.8858 3.19539 14.4076 3.54132C14.9294 3.88725 15.3401 4.37651 15.5905 4.9503H18.4586L15.8343 7.57467C15.6649 10.2109 14.4979 12.6837 12.5706 14.4902C10.6433 16.2968 8.10029 17.3016 5.45864 17.3003C2.85864 17.3003 2.20864 16.3253 2.20864 16.3253C2.20864 16.3253 4.80864 15.3503 6.10864 13.4003C6.10864 13.4003 0.908642 10.8003 2.20864 3.6503C2.20864 3.6503 5.45864 6.9003 9.35864 7.5503V6.2503Z" fill="currentColor"/>
</svg>
