<svg viewBox="0 0 20 20" xmlns="http://www.w3.org/2000/svg">
<path d="M10.0521 4.38013C10.0578 4.38014 10.064 4.38015 10.0705 4.38017L10.1413 4.38039C10.9631 4.38341 15.1282 4.4136 16.2512 4.71551C16.9397 4.90015 17.4818 5.44431 17.6657 6.13504C17.767 6.51454 17.8376 7.01894 17.8868 7.53769L17.8964 7.6416C17.9041 7.7283 17.9113 7.81519 17.9179 7.90176L17.9256 8.00546C17.9913 8.91957 17.999 9.77497 17.9999 9.96212L18 9.98737C18 9.98944 18 9.99282 18 9.99282V10.007C18 10.007 18 10.0104 18 10.0124L17.9999 10.0377C17.999 10.2319 17.9907 11.1458 17.9179 12.0981L17.9097 12.2021L17.901 12.3062C17.8514 12.8788 17.7772 13.4474 17.6657 13.8648C17.4818 14.5555 16.9397 15.0998 16.2512 15.2843C15.0908 15.5964 10.6821 15.6182 10.0705 15.6198L10.0234 15.6199C10.0196 15.6199 10.0162 15.6199 10.0133 15.6199L9.99405 15.6199C9.99405 15.6199 9.98963 15.6199 9.98671 15.6199L9.92944 15.6198C9.62039 15.619 8.34154 15.613 7.00227 15.567L6.83104 15.561C6.80247 15.5599 6.77389 15.5588 6.74531 15.5577L6.57389 15.551L6.40286 15.5437C5.29335 15.495 4.2355 15.4152 3.74887 15.2843C3.06045 15.0998 2.51835 14.5555 2.33436 13.8648C2.22289 13.4474 2.14858 12.8788 2.09904 12.3062L2.0903 12.2021L2.08209 12.0981C2.01188 11.1804 2.00169 10.2984 2.00021 10.0617L2.00003 10.0278C2.00002 10.0248 2.00001 10.0219 2 10.0194V9.98042C2.00001 9.97786 2.00002 9.97505 2.00003 9.972L2.00021 9.93811C2.00155 9.72373 2.01003 8.98009 2.06378 8.16001L2.07074 8.05714C2.07194 8.03993 2.07316 8.02271 2.0744 8.00546L2.08209 7.90176C2.08872 7.81519 2.09588 7.7283 2.10361 7.6416L2.11317 7.53769C2.1624 7.01894 2.23302 6.51454 2.33436 6.13504C2.51835 5.44431 3.06045 4.90015 3.74887 4.71551C4.2355 4.58468 5.29335 4.50488 6.40286 4.4562L6.57389 4.44895L6.74531 4.44218C6.77389 4.44109 6.80247 4.44002 6.83104 4.43897L7.00227 4.43288C8.25606 4.38984 9.45689 4.38187 9.85864 4.38039L9.92944 4.38017C9.93601 4.38015 9.94215 4.38014 9.94784 4.38013H10.0521ZM8.40003 7.59132V12.4085L12.5568 10L8.40003 7.59132Z" fill="currentColor"/>
</svg>
